<?xml version="1.0" standalone="no"?>
<!DOCTYPE svg PUBLIC "-//W3C//DTD SVG 20010904//EN"
 "http://www.w3.org/TR/2001/REC-SVG-20010904/DTD/svg10.dtd">
<svg version="1.0" xmlns="http://www.w3.org/2000/svg"
 width="4206.000000pt" height="3498.000000pt" viewBox="0 0 4206.000000 3498.000000"
 preserveAspectRatio="xMidYMid meet">
<metadata>
Created by potrace 1.16, written by Peter Selinger 2001-2019
</metadata>
<g transform="translate(0.000000,3498.000000) scale(0.100000,-0.100000)"
fill="#000000" stroke="none">
<path d="M15830 31575 l-23 -24 31 -35 c76 -87 147 -284 179 -493 26 -176 23
-641 -6 -893 -55 -476 -116 -835 -232 -1360 -58 -265 -57 -260 -72 -260 -19 0
-244 -112 -322 -160 -94 -58 -203 -149 -312 -264 -208 -217 -335 -452 -409
-756 l-28 -115 -3 -962 -4 -963 -30 0 c-20 0 -40 -10 -60 -29 l-29 -29 0 -320
0 -319 -100 -279 c-144 -399 -225 -617 -430 -1154 -100 -261 -210 -552 -245
-645 -35 -94 -176 -452 -313 -795 -480 -1202 -603 -1556 -858 -2460 -250 -892
-474 -2014 -554 -2780 -5 -52 -21 -203 -35 -335 -54 -519 -73 -949 -70 -1530
4 -505 26 -896 80 -1380 13 -121 27 -249 30 -285 26 -269 128 -875 216 -1280
33 -151 67 -306 75 -345 78 -363 230 -888 411 -1420 182 -534 316 -875 511
-1300 58 -126 126 -278 152 -337 57 -127 295 -593 372 -728 30 -52 99 -174
153 -270 194 -346 409 -691 610 -977 l110 -158 5 -620 c6 -687 6 -686 81 -908
183 -548 650 -958 1226 -1079 102 -21 136 -22 606 -26 l497 -3 0 -24 c0 -26
-1 -25 188 -61 68 -13 92 -22 93 -33 1 -9 6 -70 13 -136 l11 -120 35 -6 c19
-3 53 -15 75 -26 57 -29 132 -43 235 -43 98 0 283 22 405 48 90 19 86 14 71
120 -8 51 -7 52 17 52 23 0 25 4 31 63 4 34 9 86 13 115 l5 52 2572 -2 2571
-3 14 -133 c14 -130 14 -132 39 -132 24 0 24 -1 17 -53 -16 -109 -24 -99 100
-124 299 -60 511 -58 632 7 21 11 50 20 64 20 l27 0 7 104 c12 178 6 167 110
188 50 10 114 23 144 29 l53 11 -5 44 -5 44 457 0 c478 0 568 6 731 49 255 66
477 185 680 364 272 239 459 573 520 931 20 118 20 147 20 7567 l0 7449 54 0
c44 0 60 5 85 26 l31 26 0 1473 0 1473 -31 26 c-25 21 -41 26 -85 26 l-54 0 0
2114 c0 2054 -1 2117 -20 2229 -27 157 -70 289 -146 442 -83 169 -173 294
-309 430 -224 224 -473 362 -795 441 l-115 29 -4715 3 c-3333 2 -4743 0 -4811
-8 -53 -6 -131 -19 -175 -30 -43 -10 -80 -17 -82 -15 -2 1 13 67 32 146 77
320 172 831 215 1154 37 278 54 531 54 790 0 377 -34 593 -122 779 -34 73
-114 186 -131 186 -4 0 -17 -11 -30 -25z m6046 -3716 c64 -20 124 -110 124
-186 -1 -116 -119 -217 -230 -198 -60 10 -124 56 -149 107 -24 51 -28 123 -8
171 17 40 88 105 124 113 16 3 33 7 38 9 12 4 59 -3 101 -16z m-610 -35 c56
-41 69 -69 69 -149 0 -82 -14 -111 -75 -152 l-33 -23 -752 0 -752 0 -34 23
c-42 28 -79 98 -79 152 1 73 47 144 110 168 8 3 353 5 767 4 742 -2 752 -2
779 -23z m-5869 -6966 c-1 -810 -2 -148 -2 1472 0 1620 1 2282 2 1473 2 -810
2 -2136 0 -2945z m8009 3886 c19 -74 -28 -204 -124 -347 -83 -123 -163 -216
-357 -417 -102 -106 -185 -195 -185 -199 0 -8 35 -21 407 -147 l313 -107 39
36 c68 62 131 83 159 55 20 -20 14 -38 -23 -59 -51 -30 -47 -61 13 -119 56
-54 186 -121 292 -150 85 -23 220 -27 282 -8 48 14 93 64 110 120 16 54 15
290 -1 448 -14 137 -60 504 -67 541 l-5 26 -217 6 c-119 3 -234 11 -255 17
-50 15 -74 51 -58 87 l12 26 107 -7 c59 -3 171 -9 250 -13 l142 -6 0 46 c0 37
5 49 26 66 15 12 32 21 39 21 21 0 43 -33 55 -82 15 -56 8 -55 184 -33 127 15
156 11 156 -26 0 -28 -41 -65 -86 -78 -22 -7 -83 -14 -136 -18 -54 -3 -98 -7
-98 -8 0 0 13 -107 30 -236 70 -560 64 -798 -24 -913 -59 -78 -203 -118 -350
-98 -160 21 -366 107 -478 199 -41 34 -61 43 -90 43 -55 0 -200 49 -441 149
-236 98 -285 116 -295 107 -3 -4 -9 -82 -12 -174 -4 -92 -11 -176 -15 -187
-13 -34 -37 -55 -60 -55 -46 0 -48 15 -35 231 11 198 11 202 -9 223 -28 30
-26 54 6 88 l27 28 -1 153 c-1 165 -20 322 -57 487 -22 93 -23 108 -10 127 15
24 54 39 78 30 36 -14 73 -210 87 -467 5 -102 11 -192 12 -201 2 -16 185 180
336 361 93 111 199 266 246 360 54 109 69 123 81 74z m2254 -171 c67 -30 93
-63 98 -127 8 -96 -45 -216 -141 -323 l-35 -38 102 3 c172 6 253 -40 264 -149
10 -107 -44 -203 -217 -382 -238 -246 -523 -416 -577 -342 -20 27 -18 40 16
78 21 25 46 38 92 51 132 36 260 118 393 251 134 132 209 267 191 341 -9 36
-60 54 -153 54 -102 0 -181 -20 -311 -77 -59 -25 -147 -61 -196 -78 l-89 -32
2 -205 c4 -320 -22 -404 -110 -358 -23 13 -24 35 -3 108 14 49 16 91 11 282
-3 124 -11 291 -18 372 -9 110 -9 179 -1 275 6 70 10 129 8 131 -8 7 -191 -70
-254 -108 -79 -47 -108 -50 -124 -15 -9 19 -8 29 6 49 42 65 440 208 701 252
116 19 288 13 345 -13z m-7959 -450 c0 -236 4 -454 8 -487 8 -63 24 -83 74
-93 15 -3 27 -12 27 -19 0 -11 -32 -14 -165 -14 -140 0 -165 2 -165 15 0 8 7
15 15 15 27 0 63 22 74 47 7 16 11 156 11 437 0 399 -1 414 -20 439 -11 14
-34 28 -50 32 -17 4 -30 11 -30 16 0 5 1 9 3 10 5 2 183 27 200 28 16 1 17
-26 18 -426z m-1090 371 c113 -53 163 -137 157 -264 -4 -103 -32 -146 -121
-190 -60 -29 -71 -31 -220 -37 l-157 -6 0 -151 c1 -83 5 -170 9 -194 11 -55
52 -99 103 -109 22 -5 40 -12 41 -18 1 -6 -84 -11 -235 -13 -198 -2 -238 0
-238 12 0 8 15 16 38 20 52 8 89 39 102 84 8 25 10 163 8 414 l-3 378 -31 31
c-21 21 -44 32 -72 36 -27 4 -42 11 -42 20 0 12 46 14 308 11 287 -3 310 -4
353 -24z m-2013 -210 l32 -6 0 -409 0 -409 -25 0 c-39 0 -81 -26 -94 -57 -8
-21 -11 -240 -9 -831 l3 -804 33 -29 c20 -18 43 -29 62 -29 l30 0 0 -300 c0
-296 0 -300 -20 -300 -29 0 -78 -27 -90 -49 -7 -13 -10 -297 -10 -841 l0 -822
29 -29 c20 -19 40 -29 60 -29 l31 0 0 -6470 c0 -3558 -2 -6470 -4 -6470 -13 0
-408 620 -554 870 -169 287 -559 1045 -685 1330 -96 219 -253 598 -332 805
-42 110 -92 238 -110 285 -42 110 -149 437 -224 689 -277 924 -435 1712 -561
2796 -50 429 -96 1427 -85 1845 11 429 41 1043 60 1225 66 634 119 1033 206
1530 36 206 147 716 229 1055 117 482 210 802 402 1380 129 391 142 426 411
1100 124 311 232 585 240 610 9 25 66 176 128 335 225 584 391 1028 563 1515
42 118 81 224 86 235 6 11 33 85 60 164 28 79 53 148 56 153 4 5 16 0 28 -11
12 -11 36 -24 54 -27z m4110 -160 l3 -30 52 25 c60 30 173 40 240 22 73 -21
131 -72 169 -148 30 -62 33 -76 33 -158 0 -77 -4 -99 -28 -150 -53 -113 -139
-174 -258 -183 -74 -5 -119 6 -175 44 l-36 25 3 -124 c4 -139 15 -167 70 -183
18 -5 34 -15 37 -22 3 -10 -33 -12 -165 -10 -162 3 -205 12 -137 30 17 4 39
17 50 29 18 20 19 42 22 374 3 408 2 415 -67 436 -23 7 -41 18 -41 24 0 13
119 33 185 31 37 -1 40 -3 43 -32z m-1422 -9 c55 -34 104 -114 104 -172 l0
-33 -215 0 -215 0 0 -42 c1 -158 82 -281 203 -308 87 -19 163 12 202 83 11 20
26 37 33 37 15 0 15 -3 -3 -48 -35 -82 -103 -123 -217 -130 -135 -8 -234 34
-296 127 -42 64 -55 113 -55 202 1 131 62 232 176 289 57 29 68 31 148 28 74
-3 92 -7 135 -33z m933 19 c28 -8 66 -28 84 -44 l32 -28 5 -235 c5 -213 7
-237 24 -256 25 -27 54 -27 83 1 17 15 26 19 34 11 8 -8 2 -20 -18 -43 -54
-60 -175 -51 -219 15 l-16 24 -36 -28 c-106 -82 -264 -65 -312 35 -48 98 7
185 140 224 182 52 200 67 200 162 0 72 -22 123 -61 143 -60 32 -117 5 -146
-67 -19 -48 -52 -64 -91 -46 -34 16 -42 70 -16 99 41 46 211 64 313 33z m1570
-13 c66 -35 137 -107 167 -170 35 -73 38 -173 6 -243 -29 -66 -104 -142 -171
-175 -49 -25 -67 -28 -151 -28 -88 0 -101 3 -162 33 -73 36 -123 86 -160 161
-33 67 -32 187 1 256 34 67 99 130 174 166 58 28 68 30 157 26 74 -2 104 -8
139 -26z m467 -16 c6 -44 7 -45 21 -25 44 62 208 95 253 50 26 -26 26 -76 1
-90 -32 -17 -49 -12 -90 25 -50 45 -89 47 -125 5 -36 -43 -41 -80 -41 -291 0
-206 4 -221 66 -234 16 -4 29 -13 29 -21 0 -11 -29 -14 -166 -14 -125 0 -165
3 -162 12 3 7 18 16 34 20 17 4 39 17 50 29 18 19 19 38 19 249 0 228 0 228
-24 254 -14 14 -35 26 -48 26 -13 0 -23 6 -23 14 0 14 82 32 162 35 36 1 37 0
44 -44z m729 13 c79 -42 79 -41 85 -306 5 -217 6 -235 24 -248 27 -19 49 -18
80 7 33 26 44 18 26 -17 -38 -70 -179 -72 -227 -4 -17 24 -36 25 -54 3 -24
-29 -91 -53 -149 -53 -109 0 -180 59 -180 148 0 85 43 131 154 162 191 55 220
86 196 212 -12 63 -42 96 -93 105 -49 8 -83 -15 -107 -73 -22 -51 -56 -70 -95
-52 -49 22 -45 87 8 114 56 29 80 33 182 31 85 -3 107 -7 150 -29z m439 16 c3
-9 6 -27 6 -42 l0 -25 23 21 c89 83 288 84 364 1 34 -37 42 -99 43 -306 0
-180 1 -194 20 -213 11 -11 34 -23 50 -27 17 -3 30 -12 30 -19 0 -11 -32 -14
-165 -14 -140 0 -165 2 -165 15 0 8 7 15 15 15 27 0 63 22 74 47 17 38 15 415
-3 458 -18 42 -61 65 -121 65 -62 0 -110 -24 -137 -69 -22 -34 -23 -45 -23
-243 0 -228 1 -231 65 -253 64 -22 29 -30 -130 -30 -100 0 -160 4 -160 10 0 6
13 13 28 17 16 4 37 17 48 29 18 19 19 38 19 249 0 228 0 228 -24 254 -14 14
-32 26 -42 26 -17 0 -35 17 -27 25 5 6 125 22 169 24 25 1 39 -4 43 -15z
m-3374 -1278 c0 -9 -16 -16 -44 -20 -61 -9 -107 -42 -134 -97 -22 -44 -22 -54
-20 -275 l3 -229 243 240 c228 227 242 243 242 277 0 44 -31 73 -90 83 -25 4
-40 12 -40 21 0 12 37 14 215 14 177 0 215 -2 215 -14 0 -8 -15 -17 -37 -21
-21 -3 -60 -21 -88 -40 -47 -31 -446 -407 -447 -420 0 -15 534 -685 574 -720
45 -38 123 -80 171 -90 15 -3 27 -12 27 -20 0 -13 -45 -15 -325 -15 -278 0
-325 2 -325 15 0 8 14 17 38 21 20 4 49 13 65 21 22 11 27 20 27 52 0 51 -47
121 -257 383 l-158 197 -28 -27 -28 -27 3 -240 c3 -221 5 -243 24 -275 26 -46
73 -76 129 -84 29 -5 45 -12 45 -22 0 -12 -48 -14 -315 -14 -267 0 -315 2
-315 14 0 10 16 17 45 22 56 8 103 38 129 84 20 34 21 48 21 550 0 502 -1 516
-21 550 -26 46 -75 77 -130 86 -28 4 -44 11 -44 20 0 12 53 14 315 14 262 0
315 -2 315 -14z m1371 -503 c97 -43 163 -134 176 -241 l6 -52 -287 0 -286 0 0
-77 c1 -260 173 -437 384 -393 74 15 129 57 158 120 12 27 26 50 31 50 30 0 1
-90 -48 -148 -64 -76 -206 -115 -346 -94 -99 14 -173 47 -233 102 -95 87 -130
187 -124 349 4 116 27 184 88 260 38 49 125 109 192 133 72 25 223 21 289 -9z
m1841 -2 c68 -26 103 -52 126 -94 15 -28 17 -69 20 -312 1 -154 5 -290 7 -303
14 -62 82 -80 135 -36 40 34 57 21 30 -23 -27 -45 -74 -67 -145 -67 -72 -1
-123 21 -157 69 l-24 34 -43 -34 c-63 -50 -123 -70 -211 -70 -58 1 -86 6 -123
24 -143 69 -141 277 3 351 21 11 84 32 141 48 197 55 224 80 224 207 -1 131
-55 205 -151 205 -55 0 -94 -32 -128 -105 -36 -79 -96 -96 -146 -43 -55 59 4
137 127 168 67 17 251 6 315 -19z m622 7 c3 -13 6 -38 6 -56 l0 -33 38 30 c65
53 128 74 228 79 110 5 171 -12 232 -64 66 -56 72 -90 72 -406 l0 -268 28 -30
c15 -16 45 -35 66 -42 22 -7 41 -19 44 -25 3 -10 -46 -13 -222 -13 -186 0
-226 2 -226 14 0 8 16 17 37 21 53 10 70 21 90 58 16 28 18 63 18 307 0 265
-1 277 -22 316 -28 53 -88 84 -161 84 -90 0 -154 -37 -195 -115 -21 -38 -22
-53 -22 -305 0 -305 0 -307 86 -337 27 -10 49 -23 49 -30 0 -10 -49 -13 -220
-13 -173 0 -220 3 -220 13 0 7 19 18 43 24 23 7 53 24 67 38 l25 27 3 281 c2
155 1 296 -3 313 -7 41 -49 82 -91 90 -55 10 -42 32 24 40 31 3 77 10 102 14
89 15 117 12 124 -12z m1251 -10 l50 -26 50 29 c57 33 136 39 184 14 59 -30
57 -116 -3 -123 -22 -3 -36 5 -66 37 -42 43 -81 53 -119 29 -18 -11 -17 -15
18 -77 32 -59 36 -74 36 -136 -1 -158 -106 -246 -317 -265 -57 -5 -115 -13
-130 -19 -55 -21 -69 -79 -25 -103 12 -6 103 -14 207 -18 202 -7 251 -19 314
-78 86 -81 89 -231 5 -326 -107 -121 -410 -154 -589 -64 -57 29 -68 40 -92 87
-33 65 -35 110 -7 167 25 52 72 84 125 84 l39 1 -30 13 c-56 25 -88 70 -93
129 -4 49 -2 57 28 90 21 25 49 42 86 53 52 17 53 18 31 32 -44 30 -99 88
-120 127 -25 49 -27 143 -5 196 25 58 88 120 153 151 54 26 68 29 140 25 61
-3 92 -10 130 -29z m800 17 c79 -21 134 -53 162 -94 22 -33 23 -41 23 -275 1
-288 9 -373 40 -398 32 -26 73 -22 110 8 40 34 57 21 30 -23 -50 -82 -202 -96
-277 -25 -16 15 -34 36 -40 46 -10 19 -13 18 -49 -14 -101 -89 -261 -104 -366
-35 -93 62 -105 205 -24 293 31 35 78 56 201 92 190 55 220 84 217 211 -2 124
-57 199 -145 199 -63 0 -96 -24 -127 -94 -34 -75 -69 -97 -120 -76 -62 26 -69
91 -15 139 20 17 39 31 43 31 4 1 30 7 57 15 68 19 208 18 280 0z m670 -40 l7
-54 37 29 c60 48 128 73 215 78 141 8 243 -33 285 -116 17 -34 19 -65 23 -322
3 -213 7 -292 18 -312 12 -26 80 -68 108 -68 7 0 12 -7 12 -15 0 -13 -31 -15
-220 -15 -183 0 -220 2 -220 14 0 9 15 17 39 21 43 7 77 34 93 73 14 38 22
389 10 501 -10 98 -23 126 -76 165 -23 17 -42 21 -110 21 -75 0 -87 -3 -124
-29 -25 -17 -50 -47 -64 -75 -22 -44 -23 -55 -23 -311 0 -307 0 -307 85 -337
27 -10 50 -23 50 -30 0 -10 -49 -13 -220 -13 -176 0 -220 3 -220 13 0 8 21 20
47 28 28 9 54 25 67 42 20 27 21 43 24 300 2 150 1 286 -3 304 -8 46 -48 90
-90 97 -56 11 -44 33 23 42 31 3 77 10 102 14 25 4 62 8 82 9 l37 1 6 -55z
m-4603 -287 c3 -332 3 -333 28 -382 32 -63 73 -86 155 -86 108 1 181 53 205
150 7 29 10 133 8 297 -3 248 -3 252 -26 276 -13 14 -44 30 -69 36 -27 7 -43
16 -40 24 2 8 46 13 150 15 l147 3 0 -328 c0 -181 4 -345 9 -366 12 -50 45
-85 88 -93 18 -3 33 -12 33 -20 0 -8 -1 -14 -2 -15 -41 -9 -265 -36 -270 -33
-5 3 -8 20 -8 39 0 60 -8 68 -43 41 -69 -51 -170 -86 -250 -86 -56 0 -151 30
-187 59 -19 15 -45 45 -57 67 -22 37 -23 50 -24 279 -1 358 -8 387 -99 414
-23 7 -40 18 -40 26 0 13 24 15 144 15 l144 0 4 -332z m-4605 -7651 c-1 -782
-2 -139 -2 1428 0 1568 1 2207 2 1422 2 -786 2 -2068 0 -2850z m6319 1698 c24
-14 69 -55 101 -92 178 -206 223 -238 326 -231 40 2 80 13 114 30 43 21 53 23
57 11 11 -27 6 -443 -5 -491 -58 -250 -177 -458 -365 -642 -93 -91 -105 -106
-99 -129 12 -52 42 -67 210 -110 467 -118 709 -182 757 -199 29 -11 81 -30
116 -42 112 -40 377 -177 498 -259 121 -81 232 -182 286 -262 28 -41 83 -152
121 -244 22 -53 81 -254 97 -330 7 -33 16 -64 20 -70 4 -5 10 -35 14 -65 3
-30 11 -80 17 -110 14 -77 28 -179 40 -290 5 -52 14 -140 20 -195 5 -55 14
-179 19 -275 6 -96 14 -240 20 -320 22 -342 32 -483 41 -615 5 -77 12 -395 15
-708 5 -617 5 -627 -52 -797 -35 -103 -57 -132 -147 -196 -120 -85 -157 -121
-157 -155 0 -29 -1 -29 -23 -14 -23 15 -27 13 -100 -50 -69 -59 -88 -69 -216
-115 -553 -198 -979 -449 -1119 -659 l-39 -59 -34 125 c-19 69 -39 127 -45
130 -7 2 -153 -35 -325 -82 -270 -75 -321 -92 -369 -125 -97 -66 -240 -132
-345 -159 -40 -10 -40 -11 -37 -50 6 -56 -15 -141 -50 -213 -38 -76 -143 -185
-209 -216 -134 -64 -292 -48 -479 49 -157 81 -367 265 -448 391 -57 88 -90
127 -132 153 -50 31 -182 87 -189 79 -12 -12 -3 -171 13 -228 10 -32 16 -59
14 -61 -2 -1 -111 83 -243 187 -352 277 -927 718 -1105 848 -85 62 -181 135
-212 162 -32 27 -62 46 -68 43 -5 -3 -10 -1 -10 6 0 7 -17 33 -38 58 -134 160
-181 272 -195 466 -21 290 -9 395 89 805 23 94 25 129 29 355 2 137 8 273 13
300 6 28 15 79 22 115 6 36 16 90 21 120 18 89 98 415 114 460 8 24 15 55 15
70 0 47 47 220 105 385 31 88 62 183 70 210 8 28 18 59 23 70 5 11 55 160 111
330 103 316 144 412 218 521 87 128 163 196 382 345 52 35 120 81 150 102 73
49 293 160 451 226 69 29 137 58 153 64 15 7 27 17 27 23 0 9 256 99 373 130
101 26 103 61 13 168 -83 97 -113 142 -164 243 -64 128 -132 367 -132 464 0
29 9 43 51 84 28 28 90 104 137 170 48 66 114 148 148 181 178 178 425 187
741 27 101 -51 118 -57 175 -57 83 1 126 21 268 128 63 47 135 93 160 101 58
19 122 12 176 -20z m-6319 -9398 c-1 -881 -2 -160 -2 1603 0 1763 1 2484 2
1602 2 -881 2 -2323 0 -3205z"/>
<path d="M25370 24500 c-123 -15 -251 -42 -264 -55 -26 -26 -39 -157 -34 -349
2 -102 6 -188 9 -191 9 -8 126 33 204 72 215 109 355 260 372 402 7 57 -6 85
-48 107 -38 19 -149 26 -239 14z"/>
<path d="M16270 24266 l0 -226 83 0 c107 0 158 24 202 94 25 41 29 58 30 120
0 91 -30 157 -93 200 -37 26 -52 30 -132 34 l-90 4 0 -226z"/>
<path d="M18815 24110 c-29 -12 -62 -50 -81 -95 -14 -32 -18 -71 -18 -195 -1
-147 0 -158 24 -204 32 -63 77 -89 142 -83 66 6 109 42 150 124 31 64 33 74
33 173 0 126 -22 186 -91 250 -39 35 -49 40 -91 39 -27 0 -57 -4 -68 -9z"/>
<path d="M17074 24116 c-46 -20 -104 -109 -104 -157 0 -5 68 -9 150 -9 l150 0
0 25 c0 38 -24 86 -58 118 -36 34 -93 44 -138 23z"/>
<path d="M18133 23808 c-102 -60 -128 -94 -128 -165 0 -44 5 -57 27 -79 47
-48 119 -32 160 35 18 28 23 55 26 126 6 143 11 139 -85 83z"/>
<path d="M19574 24116 c-43 -19 -100 -90 -121 -150 -22 -66 -23 -193 0 -268
23 -76 95 -155 152 -168 56 -13 104 3 147 47 43 45 57 71 74 138 62 231 -89
472 -252 401z"/>
<path d="M20867 23816 c-119 -74 -153 -125 -136 -205 10 -48 39 -73 84 -73 85
0 125 65 133 218 3 59 1 104 -4 103 -5 -1 -40 -20 -77 -43z"/>
<path d="M19172 22334 c-45 -23 -98 -87 -116 -142 -30 -87 -42 -82 185 -82
l202 0 -6 51 c-7 61 -45 129 -89 160 -42 30 -130 36 -176 13z"/>
<path d="M21235 21991 c-5 -5 -50 -33 -100 -61 -107 -61 -141 -91 -166 -145
-49 -107 5 -225 103 -225 121 0 181 113 176 330 -2 74 -6 108 -13 101z"/>
<path d="M22916 22316 c-45 -46 -70 -122 -70 -216 -1 -138 59 -230 149 -230
83 0 132 71 142 208 8 96 -17 190 -62 238 -28 29 -39 34 -78 34 -39 0 -52 -5
-81 -34z"/>
<path d="M22844 21543 c15 -8 29 -27 35 -50 15 -52 -1 -64 -37 -30 -35 34 -72
35 -109 3 -24 -21 -28 -32 -28 -78 0 -104 87 -168 243 -176 143 -8 243 30 292
111 28 45 27 125 -1 161 -37 47 -75 59 -194 63 -60 2 -136 5 -168 6 -54 3 -57
2 -33 -10z"/>
<path d="M23865 21938 c-154 -92 -195 -141 -195 -231 0 -93 44 -147 119 -147
124 0 187 123 179 352 l-3 86 -100 -60z"/>
<path d="M22750 11134 c-13 -32 -8 -234 9 -374 27 -224 43 -346 61 -450 6 -36
14 -86 17 -113 3 -26 9 -49 13 -52 4 -2 29 1 55 8 l49 12 2 285 c2 325 -6 384
-60 460 -44 61 -78 124 -100 185 -25 67 -33 74 -46 39z"/>
<path d="M19521 9507 c8 -18 115 -94 345 -244 184 -120 334 -221 334 -224 0
-4 -12 -10 -27 -14 -24 -6 -6 -16 132 -71 88 -35 163 -64 167 -64 4 0 36 19
70 43 35 23 84 51 111 61 26 10 47 22 47 27 0 5 -49 93 -110 197 -60 103 -110
194 -110 202 0 13 -42 18 -236 33 -201 15 -504 47 -687 73 l-48 7 12 -26z"/>
<path d="M21985 9429 c-49 -4 -241 -10 -426 -15 l-336 -7 -122 -155 c-67 -85
-120 -156 -118 -158 2 -3 57 2 121 11 68 9 194 15 299 15 200 0 252 9 389 61
88 34 89 43 5 58 l-42 8 45 18 c62 26 267 127 310 154 l35 21 -35 -2 c-19 0
-75 -5 -125 -9z"/>
</g>
</svg>
